<svg width="1137" height="1006" viewBox="0 0 1137 1006" fill="none" xmlns="http://www.w3.org/2000/svg">
<path d="M549.786 889.986L582.881 923.08L529.694 976.267L476.926 923.486L510.02 890.404L529.694 910.078L549.786 889.986Z" fill="white" stroke="white" stroke-width="2.24991" stroke-miterlimit="10"/>
<path d="M478.495 961.276L511.59 994.358L458.403 1047.54L405.635 994.776L438.729 961.682L458.403 981.355L478.495 961.276Z" fill="white" stroke="white" stroke-width="2.24991" stroke-miterlimit="10"/>
<path d="M619.599 959.811L652.693 992.906L599.52 1046.08L546.738 993.311L579.833 960.217L599.52 979.903L619.599 959.811Z" fill="white" stroke="white" stroke-width="2.24991" stroke-miterlimit="10"/>
<path d="M552.795 326.331L585.889 359.425L532.702 412.612L479.934 359.844L513.029 326.749L532.702 346.423L552.795 326.331Z" fill="white" stroke="white" stroke-width="2.24991" stroke-miterlimit="10"/>
<path d="M481.504 397.621L514.598 430.716L461.412 483.903L408.643 431.121L441.738 398.04L461.412 417.714L481.504 397.621Z" fill="white" stroke="white" stroke-width="2.24991" stroke-miterlimit="10"/>
<path d="M622.607 396.156L655.702 429.251L602.528 482.438L549.747 429.67L582.841 396.575L602.528 416.249L622.607 396.156Z" fill="white" stroke="white" stroke-width="2.24991" stroke-miterlimit="10"/>
<path d="M551.33 467.447L584.424 500.542L531.237 553.715L478.469 500.947L511.564 467.853L531.237 487.539L551.33 467.447Z" fill="white" stroke="white" stroke-width="2.24991" stroke-miterlimit="10"/>
<path d="M427.414 553.048L460.509 519.954L513.696 573.141L460.928 625.909L427.833 592.814L447.507 573.141L427.414 553.048Z" fill="white" stroke="white" stroke-width="2.24991" stroke-miterlimit="10"/>
<path d="M511.067 815.699L477.972 782.605L531.159 729.418L583.927 782.186L550.832 815.281L531.159 795.607L511.067 815.699Z" fill="white" stroke="white" stroke-width="2.24991" stroke-miterlimit="10"/>
<path d="M582.357 744.408L549.263 711.314L602.45 658.14L655.218 710.908L622.123 744.003L602.45 724.329L582.357 744.408Z" fill="white" stroke="white" stroke-width="2.24991" stroke-miterlimit="10"/>
<path d="M441.241 745.874L408.159 712.779L461.333 659.592L514.114 712.373L481.02 745.468L461.333 725.781L441.241 745.874Z" fill="white" stroke="white" stroke-width="2.24991" stroke-miterlimit="10"/>
<path d="M512.532 674.596L479.437 641.501L532.624 588.314L585.392 641.083L552.297 674.177L532.624 654.504L512.532 674.596Z" fill="white" stroke="white" stroke-width="2.24991" stroke-miterlimit="10"/>
<path d="M777.55 590.447L744.456 623.541L691.269 570.354L744.037 517.586L777.132 550.681L757.458 570.354L777.55 590.447Z" fill="white" stroke="white" stroke-width="2.24991" stroke-miterlimit="10"/>
<path d="M706.259 519.169L673.165 552.263L619.991 499.077L672.759 446.308L705.854 479.403L686.167 499.077L706.259 519.169Z" fill="white" stroke="white" stroke-width="2.24991" stroke-miterlimit="10"/>
<path d="M707.724 660.272L674.63 693.367L621.443 640.18L674.224 587.412L707.319 620.506L687.632 640.18L707.724 660.272Z" fill="white" stroke="white" stroke-width="2.24991" stroke-miterlimit="10"/>
<path d="M636.447 588.982L603.352 622.076L550.165 568.902L602.934 516.121L636.028 549.216L616.355 568.902L636.447 588.982Z" fill="white" stroke="white" stroke-width="2.24991" stroke-miterlimit="10"/>
<path d="M833.105 606.654L866.199 639.748L813.026 692.935L760.244 640.167L793.339 607.072L813.026 626.746L833.105 606.654Z" fill="white" stroke="white" stroke-width="2.24991" stroke-miterlimit="10"/>
<path d="M761.827 677.945L794.922 711.039L741.735 764.226L688.967 711.445L722.061 678.35L741.735 698.037L761.827 677.945Z" fill="white" stroke="white" stroke-width="2.24991" stroke-miterlimit="10"/>
<path d="M902.93 676.479L936.025 709.574L882.838 762.761L830.07 709.98L863.165 676.898L882.838 696.572L902.93 676.479Z" fill="white" stroke="white" stroke-width="2.24991" stroke-miterlimit="10"/>
<path d="M831.653 747.77L864.747 780.852L811.56 834.039L758.792 781.27L791.874 748.176L811.56 767.849L831.653 747.77Z" fill="white" stroke="white" stroke-width="2.24991" stroke-miterlimit="10"/>
<path d="M566.634 831.906L599.729 798.812L652.903 851.999L600.134 904.767L567.04 871.672L586.726 851.999L566.634 831.906Z" fill="white" stroke="white" stroke-width="2.24991" stroke-miterlimit="10"/>
<path d="M637.912 903.197L671.006 870.103L724.193 923.276L671.425 976.058L638.33 942.963L658.004 923.276L637.912 903.197Z" fill="white" stroke="white" stroke-width="2.24991" stroke-miterlimit="10"/>
<path d="M636.447 762.081L669.541 728.986L722.728 782.173L669.96 834.941L636.865 801.847L656.539 782.173L636.447 762.081Z" fill="white" stroke="white" stroke-width="2.24991" stroke-miterlimit="10"/>
<path d="M707.738 833.371L740.832 800.277L794.019 853.464L741.251 906.232L708.156 873.137L727.83 853.464L707.738 833.371Z" fill="white" stroke="white" stroke-width="2.24991" stroke-miterlimit="10"/>
<path d="M862.681 1024.73L829.586 991.637L882.76 938.45L935.541 991.231L902.446 1024.33L882.76 1004.64L862.681 1024.73Z" fill="white" stroke="white" stroke-width="2.24991" stroke-miterlimit="10"/>
<path d="M721.564 1026.2L688.469 993.102L741.656 939.915L794.425 992.697L761.33 1025.78L741.656 1006.1L721.564 1026.2Z" fill="white" stroke="white" stroke-width="2.24991" stroke-miterlimit="10"/>
<path d="M792.855 954.906L759.76 921.811L812.947 868.638L865.715 921.406L832.621 954.5L812.947 934.827L792.855 954.906Z" fill="white" stroke="white" stroke-width="2.24991" stroke-miterlimit="10"/>
<path d="M1057.87 870.77L1024.78 903.864L971.592 850.677L1024.36 797.909L1057.45 831.004L1037.78 850.677L1057.87 870.77Z" fill="white" stroke="white" stroke-width="2.24991" stroke-miterlimit="10"/>
<path d="M986.583 799.479L953.488 832.574L900.301 779.4L953.082 726.618L986.177 759.713L966.49 779.4L986.583 799.479Z" fill="white" stroke="white" stroke-width="2.24991" stroke-miterlimit="10"/>
<path d="M988.048 940.595L954.953 973.69L901.766 920.503L954.534 867.735L987.629 900.83L967.955 920.503L988.048 940.595Z" fill="white" stroke="white" stroke-width="2.24991" stroke-miterlimit="10"/>
<path d="M916.757 869.305L883.662 902.399L830.489 849.212L883.257 796.444L916.351 829.539L896.678 849.212L916.757 869.305Z" fill="white" stroke="white" stroke-width="2.24991" stroke-miterlimit="10"/>
<path d="M268.43 606.654L301.524 639.748L248.35 692.935L195.569 640.167L228.664 607.072L248.35 626.746L268.43 606.654Z" fill="white" stroke="white" stroke-width="2.24991" stroke-miterlimit="10"/>
<path d="M197.152 677.945L230.246 711.039L177.06 764.226L124.291 711.445L157.386 678.35L177.06 698.037L197.152 677.945Z" fill="white" stroke="white" stroke-width="2.24991" stroke-miterlimit="10"/>
<path d="M338.255 676.48L371.35 709.574L318.163 762.761L265.395 709.98L298.489 676.898L318.163 696.572L338.255 676.48Z" fill="white" stroke="white" stroke-width="2.24991" stroke-miterlimit="10"/>
<path d="M266.978 747.77L300.072 780.852L246.885 834.039L194.117 781.27L227.199 748.176L246.885 767.849L266.978 747.77Z" fill="white" stroke="white" stroke-width="2.24991" stroke-miterlimit="10"/>
<path d="M1.95902 831.906L35.0536 798.812L88.2274 851.999L35.4591 904.767L2.36453 871.672L22.0512 851.999L1.95902 831.906Z" fill="white" stroke="white" stroke-width="2.24991" stroke-miterlimit="10"/>
<path d="M73.2367 903.197L106.331 870.103L159.518 923.276L106.75 976.058L73.6553 942.963L93.329 923.276L73.2367 903.197Z" fill="white" stroke="white" stroke-width="2.24991" stroke-miterlimit="10"/>
<path d="M71.7716 762.081L104.866 728.986L158.053 782.173L105.285 834.941L72.1902 801.847L91.8639 782.173L71.7716 762.081Z" fill="white" stroke="white" stroke-width="2.24991" stroke-miterlimit="10"/>
<path d="M143.062 833.372L176.157 800.277L229.344 853.464L176.576 906.232L143.481 873.137L163.155 853.464L143.062 833.372Z" fill="white" stroke="white" stroke-width="2.24991" stroke-miterlimit="10"/>
<path d="M298.005 1024.73L264.911 991.637L318.085 938.45L370.866 991.232L337.771 1024.33L318.085 1004.64L298.005 1024.73Z" fill="white" stroke="white" stroke-width="2.24991" stroke-miterlimit="10"/>
<path d="M156.889 1026.2L123.794 993.102L176.981 939.915L229.749 992.697L196.655 1025.78L176.981 1006.1L156.889 1026.2Z" fill="white" stroke="white" stroke-width="2.24991" stroke-miterlimit="10"/>
<path d="M228.18 954.906L195.085 921.811L248.272 868.638L301.04 921.406L267.946 954.5L248.272 934.827L228.18 954.906Z" fill="white" stroke="white" stroke-width="2.24991" stroke-miterlimit="10"/>
<path d="M493.198 870.77L460.104 903.864L406.917 850.678L459.685 797.909L492.78 831.004L473.106 850.678L493.198 870.77Z" fill="white" stroke="white" stroke-width="2.24991" stroke-miterlimit="10"/>
<path d="M421.907 799.479L388.813 832.574L335.626 779.4L388.407 726.619L421.502 759.713L401.815 779.4L421.907 799.479Z" fill="white" stroke="white" stroke-width="2.24991" stroke-miterlimit="10"/>
<path d="M423.373 940.596L390.278 973.69L337.091 920.503L389.859 867.735L422.954 900.83L403.28 920.503L423.373 940.596Z" fill="white" stroke="white" stroke-width="2.24991" stroke-miterlimit="10"/>
<path d="M352.082 869.305L318.987 902.399L265.813 849.212L318.582 796.444L351.676 829.539L332.003 849.212L352.082 869.305Z" fill="white" stroke="white" stroke-width="2.24991" stroke-miterlimit="10"/>
<path d="M1113.43 886.977L1146.52 920.071L1093.34 973.258L1040.57 920.49L1073.66 887.395L1093.34 907.069L1113.43 886.977Z" fill="white" stroke="white" stroke-width="2.24991" stroke-miterlimit="10"/>
<path d="M1042.15 958.268L1075.24 991.362L1022.06 1044.54L969.29 991.768L1002.38 958.673L1022.06 978.347L1042.15 958.268Z" fill="white" stroke="white" stroke-width="2.24991" stroke-miterlimit="10"/>
<path d="M1183.25 956.803L1216.35 989.897L1163.16 1043.07L1110.39 990.303L1143.49 957.208L1163.16 976.895L1183.25 956.803Z" fill="white" stroke="white" stroke-width="2.24991" stroke-miterlimit="10"/>
<path d="M430.423 -10.6065L463.518 -43.6881L516.704 9.48567L463.936 62.2539L430.842 29.1724L450.515 9.48568L430.423 -10.6065Z" fill="white" stroke="white" stroke-width="2.24991" stroke-miterlimit="10"/>
<path d="M514.075 252.044L480.981 218.95L534.167 165.776L586.936 218.544L553.841 251.639L534.167 231.965L514.075 252.044Z" fill="white" stroke="white" stroke-width="2.24991" stroke-miterlimit="10"/>
<path d="M585.366 180.767L552.271 147.672L605.458 94.4852L658.227 147.253L625.132 180.348L605.458 160.674L585.366 180.767Z" fill="white" stroke="white" stroke-width="2.24991" stroke-miterlimit="10"/>
<path d="M444.25 182.232L411.155 149.137L464.342 95.9503L517.11 148.719L484.028 181.813L464.342 162.139L444.25 182.232Z" fill="white" stroke="white" stroke-width="2.24991" stroke-miterlimit="10"/>
<path d="M515.54 110.941L482.446 77.8463L535.633 24.6595L588.401 77.4408L555.306 110.535L535.633 90.8487L515.54 110.941Z" fill="white" stroke="white" stroke-width="2.24991" stroke-miterlimit="10"/>
<path d="M780.559 26.8047L747.464 59.8994L694.277 6.71252L747.046 -46.0557L780.14 -12.9611L760.467 6.71252L780.559 26.8047Z" fill="white" stroke="white" stroke-width="2.24991" stroke-miterlimit="10"/>
<path d="M710.733 96.6174L677.638 129.712L624.452 76.5382L677.233 23.7569L710.328 56.8515L690.641 76.5382L710.733 96.6174Z" fill="white" stroke="white" stroke-width="2.24991" stroke-miterlimit="10"/>
<path d="M639.455 25.3397L606.361 58.4343L553.174 5.24747L605.942 -47.5208L639.037 -14.4262L619.363 5.24746L639.455 25.3397Z" fill="white" stroke="white" stroke-width="2.24991" stroke-miterlimit="10"/>
<path d="M148.112 269.141L181.206 236.06L234.393 289.233L181.625 342.002L148.53 308.92L168.204 289.233L148.112 269.141Z" fill="white" stroke="white" stroke-width="2.24991" stroke-miterlimit="10"/>
<path d="M231.764 531.792L198.669 498.697L251.856 445.524L304.624 498.292L271.53 531.386L251.856 511.713L231.764 531.792Z" fill="white" stroke="white" stroke-width="2.24991" stroke-miterlimit="10"/>
<path d="M303.055 460.514L269.96 427.42L323.147 374.233L375.915 427.001L342.82 460.096L323.147 440.422L303.055 460.514Z" fill="white" stroke="white" stroke-width="2.24991" stroke-miterlimit="10"/>
<path d="M161.938 461.979L128.843 428.885L182.03 375.698L234.799 428.466L201.717 461.561L182.03 441.887L161.938 461.979Z" fill="white" stroke="white" stroke-width="2.24991" stroke-miterlimit="10"/>
<path d="M233.229 390.689L200.134 357.594L253.321 304.407L306.089 357.188L272.995 390.283L253.321 370.596L233.229 390.689Z" fill="white" stroke="white" stroke-width="2.24991" stroke-miterlimit="10"/>
<path d="M498.247 306.552L465.153 339.647L411.966 286.46L464.734 233.692L497.829 266.787L478.155 286.46L498.247 306.552Z" fill="white" stroke="white" stroke-width="2.24991" stroke-miterlimit="10"/>
<path d="M428.422 376.365L395.327 409.46L342.14 356.286L394.922 303.505L428.016 336.599L408.329 356.286L428.422 376.365Z" fill="white" stroke="white" stroke-width="2.24991" stroke-miterlimit="10"/>
<path d="M357.144 305.087L324.049 338.182L270.863 284.995L323.631 232.227L356.725 265.321L337.052 284.995L357.144 305.087Z" fill="white" stroke="white" stroke-width="2.24991" stroke-miterlimit="10"/>
<path d="M836.113 43.0119L869.208 76.1066L816.034 129.28L763.253 76.5121L796.347 43.4175L816.034 63.1042L836.113 43.0119Z" fill="white" stroke="white" stroke-width="2.24991" stroke-miterlimit="10"/>
<path d="M764.836 114.29L797.93 147.384L744.743 200.571L691.975 147.803L725.07 114.708L744.743 134.382L764.836 114.29Z" fill="white" stroke="white" stroke-width="2.24991" stroke-miterlimit="10"/>
<path d="M905.939 112.825L939.034 145.919L885.847 199.106L833.078 146.338L866.173 113.243L885.847 132.917L905.939 112.825Z" fill="white" stroke="white" stroke-width="2.24991" stroke-miterlimit="10"/>
<path d="M834.661 184.115L867.743 217.21L814.569 270.397L761.788 217.615L794.882 184.534L814.569 204.208L834.661 184.115Z" fill="white" stroke="white" stroke-width="2.24991" stroke-miterlimit="10"/>
<path d="M569.643 268.252L602.737 235.157L655.911 288.344L603.143 341.112L570.048 308.03L589.735 288.344L569.643 268.252Z" fill="white" stroke="white" stroke-width="2.24991" stroke-miterlimit="10"/>
<path d="M640.92 339.542L674.015 306.448L727.202 359.634L674.434 412.403L641.339 379.308L661.013 359.634L640.92 339.542Z" fill="white" stroke="white" stroke-width="2.24991" stroke-miterlimit="10"/>
<path d="M639.455 198.439L672.55 165.344L725.737 218.531L672.969 271.299L639.874 238.205L659.548 218.531L639.455 198.439Z" fill="white" stroke="white" stroke-width="2.24991" stroke-miterlimit="10"/>
<path d="M710.746 269.717L743.841 236.622L797.028 289.809L744.259 342.577L711.165 309.482L730.838 289.809L710.746 269.717Z" fill="white" stroke="white" stroke-width="2.24991" stroke-miterlimit="10"/>
<path d="M794.398 532.367L761.304 499.273L814.491 446.086L867.259 498.867L834.164 531.962L814.491 512.275L794.398 532.367Z" fill="white" stroke="white" stroke-width="2.24991" stroke-miterlimit="10"/>
<path d="M865.689 461.09L832.594 427.995L885.768 374.808L938.55 427.577L905.455 460.671L885.768 440.998L865.689 461.09Z" fill="white" stroke="white" stroke-width="2.24991" stroke-miterlimit="10"/>
<path d="M724.573 462.542L691.478 429.46L744.665 376.273L797.433 429.042L764.339 462.136L744.665 442.463L724.573 462.542Z" fill="white" stroke="white" stroke-width="2.24991" stroke-miterlimit="10"/>
<path d="M795.863 391.264L762.769 358.169L815.956 304.983L868.724 357.751L835.629 390.845L815.956 371.172L795.863 391.264Z" fill="white" stroke="white" stroke-width="2.24991" stroke-miterlimit="10"/>
<path d="M1060.88 307.115L1027.79 340.209L974.6 287.036L1027.37 234.254L1060.46 267.349L1040.79 287.036L1060.88 307.115Z" fill="white" stroke="white" stroke-width="2.24991" stroke-miterlimit="10"/>
<path d="M989.591 235.837L956.497 268.932L903.31 215.745L956.091 162.977L989.173 196.071L969.499 215.745L989.591 235.837Z" fill="white" stroke="white" stroke-width="2.24991" stroke-miterlimit="10"/>
<path d="M991.056 376.941L957.962 410.035L904.775 356.848L957.543 304.08L990.638 337.175L970.964 356.848L991.056 376.941Z" fill="white" stroke="white" stroke-width="2.24991" stroke-miterlimit="10"/>
<path d="M919.765 305.663L886.671 338.757L833.497 285.571L886.265 232.802L919.36 265.884L899.673 285.571L919.765 305.663Z" fill="white" stroke="white" stroke-width="2.24991" stroke-miterlimit="10"/>
<path d="M1116.44 323.322L1149.53 356.417L1096.34 409.603L1043.58 356.835L1076.67 323.741L1096.34 343.414L1116.44 323.322Z" fill="white" stroke="white" stroke-width="2.24991" stroke-miterlimit="10"/>
<path d="M1045.16 394.613L1078.25 427.707L1025.07 480.894L972.298 428.126L1005.39 395.031L1025.07 414.705L1045.16 394.613Z" fill="white" stroke="white" stroke-width="2.24991" stroke-miterlimit="10"/>
<path d="M1186.26 393.148L1219.36 426.242L1166.17 479.429L1113.4 426.661L1146.5 393.566L1166.17 413.24L1186.26 393.148Z" fill="white" stroke="white" stroke-width="2.24991" stroke-miterlimit="10"/>
<path d="M1114.97 464.438L1148.07 497.533L1094.89 550.707L1042.11 497.939L1075.21 464.844L1094.89 484.531L1114.97 464.438Z" fill="white" stroke="white" stroke-width="2.24991" stroke-miterlimit="10"/>
<path d="M849.966 548.575L883.047 515.48L936.234 568.667L883.466 621.435L850.371 588.34L870.045 568.667L849.966 548.575Z" fill="white" stroke="white" stroke-width="2.24991" stroke-miterlimit="10"/>
<path d="M921.244 619.865L954.338 586.771L1007.53 639.958L954.757 692.726L921.662 659.631L941.336 639.958L921.244 619.865Z" fill="white" stroke="white" stroke-width="2.24991" stroke-miterlimit="10"/>
<path d="M919.779 478.749L952.873 445.667L1006.06 498.841L953.292 551.623L920.197 518.528L939.871 498.841L919.779 478.749Z" fill="white" stroke="white" stroke-width="2.24991" stroke-miterlimit="10"/>
<path d="M991.069 550.04L1024.16 516.945L1077.35 570.132L1024.57 622.9L991.475 589.806L1011.16 570.132L991.069 550.04Z" fill="white" stroke="white" stroke-width="2.24991" stroke-miterlimit="10"/>
<path d="M1074.72 812.691L1041.63 779.596L1094.81 726.409L1147.58 779.177L1114.49 812.272L1094.81 792.598L1074.72 812.691Z" fill="white" stroke="white" stroke-width="2.24991" stroke-miterlimit="10"/>
<path d="M1146 741.4L1112.9 708.305L1166.09 655.131L1218.86 707.9L1185.77 740.994L1166.09 721.321L1146 741.4Z" fill="white" stroke="white" stroke-width="2.24991" stroke-miterlimit="10"/>
<path d="M1004.9 742.865L971.801 709.77L1024.99 656.597L1077.76 709.365L1044.66 742.459L1024.99 722.773L1004.9 742.865Z" fill="white" stroke="white" stroke-width="2.24991" stroke-miterlimit="10"/>
<path d="M1076.19 671.587L1043.09 638.493L1096.27 585.306L1149.05 638.074L1115.95 671.169L1096.27 651.495L1076.19 671.587Z" fill="white" stroke="white" stroke-width="2.24991" stroke-miterlimit="10"/>
<path d="M1200.09 585.973L1166.99 619.067L1113.81 565.894L1166.59 513.112L1199.68 546.207L1180 565.894L1200.09 585.973Z" fill="white" stroke="white" stroke-width="2.24991" stroke-miterlimit="10"/>
<path d="M1130.28 828.898L1163.37 795.803L1216.56 848.99L1163.79 901.758L1130.69 868.664L1150.37 848.99L1130.28 828.898Z" fill="white" stroke="white" stroke-width="2.24991" stroke-miterlimit="10"/>
<path d="M852.961 -15.0672L886.056 -48.1618L939.243 5.01198L886.475 57.7933L853.38 24.6987L873.054 5.01198L852.961 -15.0672Z" fill="white" stroke="white" stroke-width="2.24991" stroke-miterlimit="10"/>
<path d="M924.252 56.2105L957.347 23.1159L1010.53 76.3028L957.765 129.071L924.671 95.9764L944.344 76.3028L924.252 56.2105Z" fill="white" stroke="white" stroke-width="2.24991" stroke-miterlimit="10"/>
<path d="M994.078 -13.6152L1027.17 -46.6967L1080.35 6.47704L1027.58 59.2584L994.483 26.1638L1014.17 6.47704L994.078 -13.6152Z" fill="white" stroke="white" stroke-width="2.24991" stroke-miterlimit="10"/>
<path d="M1077.73 249.036L1044.64 215.941L1097.82 162.767L1150.59 215.536L1117.5 248.63L1097.82 228.957L1077.73 249.036Z" fill="white" stroke="white" stroke-width="2.24991" stroke-miterlimit="10"/>
<path d="M1149.01 177.758L1115.91 144.663L1169.1 91.4766L1221.87 144.245L1188.77 177.339L1169.1 157.666L1149.01 177.758Z" fill="white" stroke="white" stroke-width="2.24991" stroke-miterlimit="10"/>
<path d="M1007.9 179.223L974.81 146.128L1028 92.9416L1080.76 145.71L1047.67 178.805L1028 159.131L1007.9 179.223Z" fill="white" stroke="white" stroke-width="2.24991" stroke-miterlimit="10"/>
<path d="M1079.2 107.932L1046.1 74.8377L1099.27 21.6509L1152.06 74.4322L1118.96 107.527L1099.27 87.8401L1079.2 107.932Z" fill="white" stroke="white" stroke-width="2.24991" stroke-miterlimit="10"/>
<path d="M1203.1 22.3311L1170 55.4257L1116.82 2.23887L1169.6 -50.5294L1202.69 -17.4348L1183 2.23886L1203.1 22.3311Z" fill="white" stroke="white" stroke-width="2.24991" stroke-miterlimit="10"/>
<path d="M1133.28 265.243L1166.38 232.148L1219.57 285.335L1166.8 338.103L1133.7 305.022L1153.38 285.335L1133.28 265.243Z" fill="white" stroke="white" stroke-width="2.24991" stroke-miterlimit="10"/>
</svg>
