<svg width="952" height="976" viewBox="0 0 952 976" fill="none" xmlns="http://www.w3.org/2000/svg">
<path d="M721 420.8L746.3 446.1L786.96 405.44L746.61 365.1L721.32 390.4L736.36 405.44L721 420.8Z" stroke="#1e3a8a" stroke-width="1.72" stroke-miterlimit="10"/>
<path d="M775.5 366.3L800.79 391.6L841.45 350.94L801.11 310.6L775.81 335.9L790.85 350.94L775.5 366.3Z" stroke="#1e3a8a" stroke-width="1.72" stroke-miterlimit="10"/>
<path d="M774.38 474.17L799.68 499.47L840.33 458.82L799.99 418.47L774.69 443.77L789.74 458.82L774.38 474.17Z" stroke="#1e3a8a" stroke-width="1.72" stroke-miterlimit="10"/>
<path d="M828.87 419.68L854.17 444.98L894.83 404.32L854.49 363.98L829.19 389.28L844.23 404.32L828.87 419.68Z" stroke="#1e3a8a" stroke-width="1.72" stroke-miterlimit="10"/>
<path d="M894.32 324.95L869.02 350.25L909.67 390.91L950.02 350.57L924.72 325.27L909.67 340.31L894.32 324.95Z" stroke="#1e3a8a" stroke-width="1.72" stroke-miterlimit="10"/>
<path d="M922.91 592.62L948.21 567.32L907.55 526.66L867.21 567L892.51 592.3L907.55 577.26L922.91 592.62Z" stroke="#1e3a8a" stroke-width="1.72" stroke-miterlimit="10"/>
<path d="M868.41 538.12L893.71 512.82L853.05 472.17L812.71 512.51L838.01 537.81L853.05 522.77L868.41 538.12Z" stroke="#1e3a8a" stroke-width="1.72" stroke-miterlimit="10"/>
<path d="M921.79 484.75L947.09 459.45L906.43 418.79L866.09 459.13L891.39 484.43L906.43 469.39L921.79 484.75Z" stroke="#1e3a8a" stroke-width="1.72" stroke-miterlimit="10"/>
<path d="M290.1 423.1L315.4 448.4L356.06 407.74L315.72 367.4L290.42 392.7L305.46 407.74L290.1 423.1Z" stroke="#1e3a8a" stroke-width="1.72" stroke-miterlimit="10"/>
<path d="M344.6 368.6L369.9 393.9L410.56 353.24L370.21 312.9L344.92 338.2L359.96 353.24L344.6 368.6Z" stroke="#1e3a8a" stroke-width="1.72" stroke-miterlimit="10"/>
<path d="M343.48 476.47L368.78 501.77L409.44 461.12L369.1 420.77L343.8 446.07L358.84 461.12L343.48 476.47Z" stroke="#1e3a8a" stroke-width="1.72" stroke-miterlimit="10"/>
<path d="M397.98 421.98L423.28 447.28L463.93 406.62L423.59 366.28L398.29 391.58L413.34 406.62L397.98 421.98Z" stroke="#1e3a8a" stroke-width="1.72" stroke-miterlimit="10"/>
<path d="M463.42 327.25L438.12 352.55L478.78 393.21L519.12 352.87L493.82 327.57L478.78 342.61L463.42 327.25Z" stroke="#1e3a8a" stroke-width="1.72" stroke-miterlimit="10"/>
<path d="M664.21 391.2L638.91 365.9L598.25 406.56L638.59 446.9L663.89 421.6L648.85 406.56L664.21 391.2Z" stroke="#1e3a8a" stroke-width="1.72" stroke-miterlimit="10"/>
<path d="M609.71 445.7L584.41 420.4L543.76 461.06L584.1 501.4L609.4 476.1L594.36 461.06L609.71 445.7Z" stroke="#1e3a8a" stroke-width="1.72" stroke-miterlimit="10"/>
<path d="M610.83 337.82L585.53 312.53L544.87 353.18L585.22 393.53L610.52 368.23L595.47 353.18L610.83 337.82Z" stroke="#1e3a8a" stroke-width="1.72" stroke-miterlimit="10"/>
<path d="M556.34 392.32L531.04 367.02L490.38 407.68L530.72 448.02L556.02 422.72L540.98 407.68L556.34 392.32Z" stroke="#1e3a8a" stroke-width="1.72" stroke-miterlimit="10"/>
<path d="M492.01 594.92L517.31 569.62L476.65 528.96L436.31 569.3L461.61 594.6L476.65 579.56L492.01 594.92Z" stroke="#1e3a8a" stroke-width="1.72" stroke-miterlimit="10"/>
<path d="M437.52 540.42L462.82 515.12L422.16 474.47L381.82 514.81L407.12 540.11L422.16 525.06L437.52 540.42Z" stroke="#1e3a8a" stroke-width="1.72" stroke-miterlimit="10"/>
<path d="M545.39 541.54L570.69 516.24L530.03 475.58L489.69 515.93L514.99 541.23L530.03 526.18L545.39 541.54Z" stroke="#1e3a8a" stroke-width="1.72" stroke-miterlimit="10"/>
<path d="M490.89 487.05L516.19 461.75L475.54 421.09L435.19 461.43L460.49 486.73L475.54 471.69L490.89 487.05Z" stroke="#1e3a8a" stroke-width="1.72" stroke-miterlimit="10"/>
<path d="M504.4 637.39L529.7 662.69L570.36 622.04L530.02 581.69L504.72 606.99L519.76 622.04L504.4 637.39Z" stroke="#1e3a8a" stroke-width="1.72" stroke-miterlimit="10"/>
<path d="M558.9 582.9L584.2 608.2L624.86 567.54L584.51 527.2L559.21 552.5L574.26 567.54L558.9 582.9Z" stroke="#1e3a8a" stroke-width="1.72" stroke-miterlimit="10"/>
<path d="M557.78 690.77L583.08 716.07L623.74 675.41L583.39 635.07L558.1 660.37L573.14 675.41L557.78 690.77Z" stroke="#1e3a8a" stroke-width="1.72" stroke-miterlimit="10"/>
<path d="M612.28 636.28L637.57 661.58L678.23 620.92L637.89 580.58L612.59 605.87L627.63 620.92L612.28 636.28Z" stroke="#1e3a8a" stroke-width="1.72" stroke-miterlimit="10"/>
<path d="M676.6 433.68L651.3 458.98L691.96 499.63L732.3 459.29L707 433.99L691.96 449.04L676.6 433.68Z" stroke="#1e3a8a" stroke-width="1.72" stroke-miterlimit="10"/>
<path d="M731.1 488.17L705.8 513.47L746.45 554.13L786.8 513.79L761.5 488.49L746.45 503.53L731.1 488.17Z" stroke="#1e3a8a" stroke-width="1.72" stroke-miterlimit="10"/>
<path d="M623.22 487.05L597.92 512.35L638.58 553.01L678.92 512.67L653.62 487.37L638.58 502.41L623.22 487.05Z" stroke="#1e3a8a" stroke-width="1.72" stroke-miterlimit="10"/>
<path d="M677.72 541.55L652.42 566.85L693.08 607.51L733.42 567.17L708.12 541.87L693.08 556.91L677.72 541.55Z" stroke="#1e3a8a" stroke-width="1.72" stroke-miterlimit="10"/>
<path d="M878.51 605.5L853.21 580.2L812.55 620.86L852.89 661.2L878.19 635.9L863.15 620.86L878.51 605.5Z" stroke="#1e3a8a" stroke-width="1.72" stroke-miterlimit="10"/>
<path d="M824.01 660L798.71 634.7L758.05 675.35L798.4 715.7L823.7 690.4L808.65 675.35L824.01 660Z" stroke="#1e3a8a" stroke-width="1.72" stroke-miterlimit="10"/>
<path d="M825.13 552.12L799.83 526.82L759.17 567.48L799.52 607.82L824.81 582.52L809.77 567.48L825.13 552.12Z" stroke="#1e3a8a" stroke-width="1.72" stroke-miterlimit="10"/>
<path d="M770.63 606.62L745.33 581.32L704.68 621.98L745.02 662.32L770.32 637.02L755.28 621.98L770.63 606.62Z" stroke="#1e3a8a" stroke-width="1.72" stroke-miterlimit="10"/>
<path d="M706.31 809.22L731.61 783.92L690.95 743.26L650.61 783.6L675.91 808.9L690.95 793.86L706.31 809.22Z" stroke="#1e3a8a" stroke-width="1.72" stroke-miterlimit="10"/>
<path d="M651.81 754.72L677.11 729.42L636.46 688.76L596.11 729.11L621.41 754.41L636.46 739.36L651.81 754.72Z" stroke="#1e3a8a" stroke-width="1.72" stroke-miterlimit="10"/>
<path d="M759.69 755.84L784.99 730.54L744.33 689.88L703.99 730.22L729.29 755.52L744.33 740.48L759.69 755.84Z" stroke="#1e3a8a" stroke-width="1.72" stroke-miterlimit="10"/>
<path d="M705.19 701.34L730.49 676.04L689.83 635.39L649.49 675.73L674.79 701.03L689.83 685.99L705.19 701.34Z" stroke="#1e3a8a" stroke-width="1.72" stroke-miterlimit="10"/>
<path d="M504.4 205.71L529.7 231.01L570.36 190.36L530.02 150.01L504.72 175.31L519.76 190.36L504.4 205.71Z" stroke="#1e3a8a" stroke-width="1.72" stroke-miterlimit="10"/>
<path d="M558.9 151.22L584.2 176.52L624.86 135.86L584.51 95.52L559.21 120.82L574.26 135.86L558.9 151.22Z" stroke="#1e3a8a" stroke-width="1.72" stroke-miterlimit="10"/>
<path d="M557.78 259.09L583.08 284.39L623.74 243.73L583.39 203.39L558.1 228.69L573.14 243.73L557.78 259.09Z" stroke="#1e3a8a" stroke-width="1.72" stroke-miterlimit="10"/>
<path d="M612.28 204.6L637.57 229.9L678.23 189.24L637.89 148.9L612.59 174.19L627.63 189.24L612.28 204.6Z" stroke="#1e3a8a" stroke-width="1.72" stroke-miterlimit="10"/>
<path d="M676.6 2L651.3 27.3L691.96 67.95L732.3 27.61L707 2.31L691.96 17.36L676.6 2Z" stroke="#1e3a8a" stroke-width="1.72" stroke-miterlimit="10"/>
<path d="M731.1 56.49L705.8 81.79L746.45 122.45L786.8 82.11L761.5 56.81L746.45 71.85L731.1 56.49Z" stroke="#1e3a8a" stroke-width="1.72" stroke-miterlimit="10"/>
<path d="M623.22 55.37L597.92 80.67L638.58 121.33L678.92 80.99L653.62 55.69L638.58 70.73L623.22 55.37Z" stroke="#1e3a8a" stroke-width="1.72" stroke-miterlimit="10"/>
<path d="M677.72 109.87L652.42 135.17L693.08 175.83L733.42 135.49L708.12 110.19L693.08 125.23L677.72 109.87Z" stroke="#1e3a8a" stroke-width="1.72" stroke-miterlimit="10"/>
<path d="M878.51 173.82L853.21 148.52L812.55 189.18L852.89 229.52L878.19 204.22L863.15 189.18L878.51 173.82Z" stroke="#1e3a8a" stroke-width="1.72" stroke-miterlimit="10"/>
<path d="M824.01 228.32L798.71 203.02L758.05 243.67L798.4 284.02L823.7 258.72L808.65 243.67L824.01 228.32Z" stroke="#1e3a8a" stroke-width="1.72" stroke-miterlimit="10"/>
<path d="M825.13 120.44L799.83 95.14L759.17 135.8L799.52 176.14L824.81 150.84L809.77 135.8L825.13 120.44Z" stroke="#1e3a8a" stroke-width="1.72" stroke-miterlimit="10"/>
<path d="M770.63 174.94L745.33 149.64L704.68 190.3L745.02 230.64L770.32 205.34L755.28 190.3L770.63 174.94Z" stroke="#1e3a8a" stroke-width="1.72" stroke-miterlimit="10"/>
<path d="M706.31 377.54L731.61 352.24L690.95 311.58L650.61 351.92L675.91 377.22L690.95 362.18L706.31 377.54Z" stroke="#1e3a8a" stroke-width="1.72" stroke-miterlimit="10"/>
<path d="M651.81 323.04L677.11 297.74L636.46 257.08L596.11 297.43L621.41 322.73L636.46 307.68L651.81 323.04Z" stroke="#1e3a8a" stroke-width="1.72" stroke-miterlimit="10"/>
<path d="M759.69 324.16L784.99 298.86L744.33 258.2L703.99 298.54L729.29 323.84L744.33 308.8L759.69 324.16Z" stroke="#1e3a8a" stroke-width="1.72" stroke-miterlimit="10"/>
<path d="M705.19 269.66L730.49 244.36L689.83 203.71L649.49 244.05L674.79 269.35L689.83 254.31L705.19 269.66Z" stroke="#1e3a8a" stroke-width="1.72" stroke-miterlimit="10"/>
<path d="M718.7 851.69L744 876.99L784.66 836.33L744.32 795.99L719.02 821.29L734.06 836.33L718.7 851.69Z" stroke="#1e3a8a" stroke-width="1.72" stroke-miterlimit="10"/>
<path d="M773.2 797.2L798.5 822.5L839.15 781.84L798.81 741.5L773.51 766.8L788.55 781.84L773.2 797.2Z" stroke="#1e3a8a" stroke-width="1.72" stroke-miterlimit="10"/>
<path d="M772.08 905.07L797.38 930.37L838.03 889.71L797.69 849.37L772.39 874.67L787.44 889.71L772.08 905.07Z" stroke="#1e3a8a" stroke-width="1.72" stroke-miterlimit="10"/>
<path d="M826.57 850.57L851.87 875.87L892.53 835.22L852.19 794.87L826.89 820.17L841.93 835.22L826.57 850.57Z" stroke="#1e3a8a" stroke-width="1.72" stroke-miterlimit="10"/>
<path d="M890.9 647.98L865.6 673.27L906.26 713.93L946.6 673.59L921.3 648.29L906.26 663.33L890.9 647.98Z" stroke="#1e3a8a" stroke-width="1.72" stroke-miterlimit="10"/>
<path d="M837.52 701.35L812.22 726.65L852.88 767.31L893.22 726.97L867.92 701.67L852.88 716.71L837.52 701.35Z" stroke="#1e3a8a" stroke-width="1.72" stroke-miterlimit="10"/>
<path d="M892.02 755.85L866.72 781.15L907.37 821.81L947.72 781.46L922.42 756.16L907.37 771.21L892.02 755.85Z" stroke="#1e3a8a" stroke-width="1.72" stroke-miterlimit="10"/>
<path d="M866.11 969.02L891.41 943.72L850.75 903.06L810.41 943.4L835.71 968.7L850.75 953.66L866.11 969.02Z" stroke="#1e3a8a" stroke-width="1.72" stroke-miterlimit="10"/>
<path d="M919.49 915.64L944.79 890.34L904.13 849.68L863.79 890.03L889.09 915.33L904.13 900.28L919.49 915.64Z" stroke="#1e3a8a" stroke-width="1.72" stroke-miterlimit="10"/>
<path d="M32.52 329.55L7.22998 354.85L47.88 395.51L88.22 355.17L62.93 329.87L47.88 344.91L32.52 329.55Z" stroke="#1e3a8a" stroke-width="1.72" stroke-miterlimit="10"/>
<path d="M233.31 393.5L208.01 368.2L167.36 408.86L207.7 449.2L233 423.9L217.96 408.86L233.31 393.5Z" stroke="#1e3a8a" stroke-width="1.72" stroke-miterlimit="10"/>
<path d="M178.82 448L153.52 422.7L112.86 463.36L153.2 503.7L178.5 478.4L163.46 463.36L178.82 448Z" stroke="#1e3a8a" stroke-width="1.72" stroke-miterlimit="10"/>
<path d="M179.94 340.12L154.64 314.82L113.98 355.48L154.32 395.82L179.62 370.53L164.58 355.48L179.94 340.12Z" stroke="#1e3a8a" stroke-width="1.72" stroke-miterlimit="10"/>
<path d="M125.44 394.62L100.14 369.32L59.48 409.98L99.83 450.32L125.13 425.02L110.08 409.98L125.44 394.62Z" stroke="#1e3a8a" stroke-width="1.72" stroke-miterlimit="10"/>
<path d="M61.1202 597.22L86.4202 571.92L45.7602 531.26L5.42017 571.6L30.7202 596.9L45.7602 581.86L61.1202 597.22Z" stroke="#1e3a8a" stroke-width="1.72" stroke-miterlimit="10"/>
<path d="M114.49 543.84L139.79 518.54L99.14 477.88L58.79 518.23L84.09 543.53L99.14 528.48L114.49 543.84Z" stroke="#1e3a8a" stroke-width="1.72" stroke-miterlimit="10"/>
<path d="M60 489.35L85.3 464.05L44.64 423.39L4.30005 463.73L29.6 489.03L44.64 473.99L60 489.35Z" stroke="#1e3a8a" stroke-width="1.72" stroke-miterlimit="10"/>
<path d="M246.38 113.73L221.09 139.03L261.74 179.69L302.08 139.35L276.79 114.05L261.74 129.09L246.38 113.73Z" stroke="#1e3a8a" stroke-width="1.72" stroke-miterlimit="10"/>
<path d="M447.17 177.68L421.87 152.38L381.22 193.04L421.56 233.38L446.86 208.08L431.82 193.04L447.17 177.68Z" stroke="#1e3a8a" stroke-width="1.72" stroke-miterlimit="10"/>
<path d="M392.68 232.18L367.38 206.88L326.72 247.54L367.06 287.88L392.36 262.58L377.32 247.54L392.68 232.18Z" stroke="#1e3a8a" stroke-width="1.72" stroke-miterlimit="10"/>
<path d="M393.8 124.3L368.5 99L327.84 139.66L368.18 180L393.48 154.71L378.44 139.66L393.8 124.3Z" stroke="#1e3a8a" stroke-width="1.72" stroke-miterlimit="10"/>
<path d="M339.3 178.8L314 153.5L273.34 194.16L313.69 234.5L338.99 209.2L323.94 194.16L339.3 178.8Z" stroke="#1e3a8a" stroke-width="1.72" stroke-miterlimit="10"/>
<path d="M274.98 381.4L300.28 356.1L259.62 315.44L219.28 355.78L244.58 381.08L259.62 366.04L274.98 381.4Z" stroke="#1e3a8a" stroke-width="1.72" stroke-miterlimit="10"/>
<path d="M328.35 328.02L353.65 302.72L313 262.06L272.65 302.41L297.95 327.71L313 312.66L328.35 328.02Z" stroke="#1e3a8a" stroke-width="1.72" stroke-miterlimit="10"/>
<path d="M273.86 273.53L299.16 248.23L258.5 207.57L218.16 247.91L243.46 273.21L258.5 258.17L273.86 273.53Z" stroke="#1e3a8a" stroke-width="1.72" stroke-miterlimit="10"/>
<path d="M73.51 639.69L98.81 664.99L139.46 624.34L99.12 583.99L73.82 609.29L88.87 624.34L73.51 639.69Z" stroke="#1e3a8a" stroke-width="1.72" stroke-miterlimit="10"/>
<path d="M128 585.2L153.3 610.5L193.96 569.84L153.62 529.5L128.32 554.8L143.36 569.84L128 585.2Z" stroke="#1e3a8a" stroke-width="1.72" stroke-miterlimit="10"/>
<path d="M126.88 693.07L152.18 718.37L192.84 677.71L152.5 637.37L127.2 662.67L142.24 677.71L126.88 693.07Z" stroke="#1e3a8a" stroke-width="1.72" stroke-miterlimit="10"/>
<path d="M181.38 638.58L206.68 663.87L247.34 623.22L206.99 582.87L181.7 608.17L196.74 623.22L181.38 638.58Z" stroke="#1e3a8a" stroke-width="1.72" stroke-miterlimit="10"/>
<path d="M245.7 435.98L220.4 461.28L261.06 501.93L301.4 461.59L276.11 436.29L261.06 451.34L245.7 435.98Z" stroke="#1e3a8a" stroke-width="1.72" stroke-miterlimit="10"/>
<path d="M300.2 490.47L274.9 515.77L315.56 556.43L355.9 516.09L330.6 490.79L315.56 505.83L300.2 490.47Z" stroke="#1e3a8a" stroke-width="1.72" stroke-miterlimit="10"/>
<path d="M192.33 489.35L167.03 514.65L207.69 555.31L248.03 514.97L222.73 489.67L207.69 504.71L192.33 489.35Z" stroke="#1e3a8a" stroke-width="1.72" stroke-miterlimit="10"/>
<path d="M246.82 543.85L221.52 569.15L262.18 609.81L302.52 569.47L277.22 544.17L262.18 559.21L246.82 543.85Z" stroke="#1e3a8a" stroke-width="1.72" stroke-miterlimit="10"/>
<path d="M447.61 607.8L422.31 582.5L381.65 623.16L422 663.5L447.3 638.2L432.25 623.16L447.61 607.8Z" stroke="#1e3a8a" stroke-width="1.72" stroke-miterlimit="10"/>
<path d="M393.12 662.3L367.82 637L327.16 677.65L367.5 718L392.8 692.7L377.76 677.65L393.12 662.3Z" stroke="#1e3a8a" stroke-width="1.72" stroke-miterlimit="10"/>
<path d="M394.23 554.42L368.94 529.12L328.28 569.78L368.62 610.12L393.92 584.82L378.88 569.78L394.23 554.42Z" stroke="#1e3a8a" stroke-width="1.72" stroke-miterlimit="10"/>
<path d="M339.74 608.92L314.44 583.62L273.78 624.28L314.12 664.62L339.42 639.32L324.38 624.28L339.74 608.92Z" stroke="#1e3a8a" stroke-width="1.72" stroke-miterlimit="10"/>
<path d="M275.41 811.52L300.71 786.22L260.06 745.56L219.71 785.9L245.01 811.2L260.06 796.16L275.41 811.52Z" stroke="#1e3a8a" stroke-width="1.72" stroke-miterlimit="10"/>
<path d="M220.92 757.02L246.22 731.72L205.56 691.06L165.22 731.41L190.52 756.7L205.56 741.66L220.92 757.02Z" stroke="#1e3a8a" stroke-width="1.72" stroke-miterlimit="10"/>
<path d="M328.79 758.14L354.09 732.84L313.43 692.18L273.09 732.52L298.39 757.82L313.43 742.78L328.79 758.14Z" stroke="#1e3a8a" stroke-width="1.72" stroke-miterlimit="10"/>
<path d="M274.3 703.64L299.6 678.34L258.94 637.69L218.6 678.03L243.89 703.33L258.94 688.28L274.3 703.64Z" stroke="#1e3a8a" stroke-width="1.72" stroke-miterlimit="10"/>
<path d="M287.8 853.99L313.1 879.29L353.76 838.63L313.42 798.29L288.12 823.59L303.16 838.63L287.8 853.99Z" stroke="#1e3a8a" stroke-width="1.72" stroke-miterlimit="10"/>
<path d="M342.3 799.5L367.6 824.8L408.26 784.14L367.92 743.8L342.62 769.1L357.66 784.14L342.3 799.5Z" stroke="#1e3a8a" stroke-width="1.72" stroke-miterlimit="10"/>
<path d="M341.18 907.37L366.48 932.67L407.14 892.01L366.8 851.67L341.5 876.97L356.54 892.01L341.18 907.37Z" stroke="#1e3a8a" stroke-width="1.72" stroke-miterlimit="10"/>
<path d="M395.68 852.87L420.98 878.17L461.63 837.52L421.29 797.17L395.99 822.47L411.04 837.52L395.68 852.87Z" stroke="#1e3a8a" stroke-width="1.72" stroke-miterlimit="10"/>
<path d="M460 650.28L434.7 675.57L475.36 716.23L515.7 675.89L490.4 650.59L475.36 665.63L460 650.28Z" stroke="#1e3a8a" stroke-width="1.72" stroke-miterlimit="10"/>
<path d="M514.5 704.77L489.2 730.07L529.86 770.73L570.2 730.39L544.9 705.09L529.86 720.13L514.5 704.77Z" stroke="#1e3a8a" stroke-width="1.72" stroke-miterlimit="10"/>
<path d="M406.62 703.65L381.33 728.95L421.98 769.61L462.33 729.27L437.03 703.97L421.98 719.01L406.62 703.65Z" stroke="#1e3a8a" stroke-width="1.72" stroke-miterlimit="10"/>
<path d="M461.12 758.15L435.82 783.45L476.48 824.11L516.82 783.76L491.52 758.46L476.48 773.51L461.12 758.15Z" stroke="#1e3a8a" stroke-width="1.72" stroke-miterlimit="10"/>
<path d="M661.91 822.1L636.61 796.8L595.95 837.46L636.29 877.8L661.59 852.5L646.55 837.46L661.91 822.1Z" stroke="#1e3a8a" stroke-width="1.72" stroke-miterlimit="10"/>
<path d="M607.41 876.59L582.11 851.29L541.46 891.95L581.8 932.29L607.1 906.99L592.06 891.95L607.41 876.59Z" stroke="#1e3a8a" stroke-width="1.72" stroke-miterlimit="10"/>
<path d="M608.53 768.72L583.23 743.42L542.58 784.08L582.92 824.42L608.22 799.12L593.17 784.08L608.53 768.72Z" stroke="#1e3a8a" stroke-width="1.72" stroke-miterlimit="10"/>
<path d="M554.04 823.22L528.74 797.92L488.08 838.57L528.42 878.92L553.72 853.62L538.68 838.57L554.04 823.22Z" stroke="#1e3a8a" stroke-width="1.72" stroke-miterlimit="10"/>
<path d="M435.22 971.32L460.52 946.02L419.86 905.36L379.52 945.7L404.82 971L419.86 955.96L435.22 971.32Z" stroke="#1e3a8a" stroke-width="1.72" stroke-miterlimit="10"/>
<path d="M543.09 972.44L568.39 947.14L527.73 906.48L487.39 946.82L512.69 972.12L527.73 957.08L543.09 972.44Z" stroke="#1e3a8a" stroke-width="1.72" stroke-miterlimit="10"/>
<path d="M488.59 917.94L513.89 892.64L473.24 851.98L432.89 892.33L458.19 917.63L473.24 902.58L488.59 917.94Z" stroke="#1e3a8a" stroke-width="1.72" stroke-miterlimit="10"/>
<path d="M674.3 864.57L649 889.87L689.66 930.53L730 890.19L704.7 864.89L689.66 879.93L674.3 864.57Z" stroke="#1e3a8a" stroke-width="1.72" stroke-miterlimit="10"/>
<path d="M29.1101 652.57L3.81006 677.87L44.4601 718.53L84.8101 678.19L59.5101 652.89L44.4601 667.93L29.1101 652.57Z" stroke="#1e3a8a" stroke-width="1.72" stroke-miterlimit="10"/>
<path d="M83.6 707.07L58.3 732.37L98.96 773.03L139.3 732.69L114 707.39L98.96 722.43L83.6 707.07Z" stroke="#1e3a8a" stroke-width="1.72" stroke-miterlimit="10"/>
<path d="M30.2199 760.45L4.92993 785.75L45.5799 826.4L85.9299 786.06L60.6299 760.76L45.5799 775.81L30.2199 760.45Z" stroke="#1e3a8a" stroke-width="1.72" stroke-miterlimit="10"/>
<path d="M231.01 824.4L205.71 799.1L165.06 839.76L205.4 880.1L230.7 854.8L215.66 839.76L231.01 824.4Z" stroke="#1e3a8a" stroke-width="1.72" stroke-miterlimit="10"/>
<path d="M176.52 878.89L151.22 853.59L110.56 894.25L150.9 934.59L176.2 909.29L161.16 894.25L176.52 878.89Z" stroke="#1e3a8a" stroke-width="1.72" stroke-miterlimit="10"/>
<path d="M177.64 771.02L152.34 745.72L111.68 786.38L152.02 826.72L177.32 801.42L162.28 786.38L177.64 771.02Z" stroke="#1e3a8a" stroke-width="1.72" stroke-miterlimit="10"/>
<path d="M123.14 825.52L97.8399 800.22L57.1799 840.87L97.5299 881.22L122.83 855.92L107.78 840.87L123.14 825.52Z" stroke="#1e3a8a" stroke-width="1.72" stroke-miterlimit="10"/>
<path d="M112.19 974.74L137.49 949.44L96.84 908.78L56.49 949.12L81.79 974.42L96.84 959.38L112.19 974.74Z" stroke="#1e3a8a" stroke-width="1.72" stroke-miterlimit="10"/>
<path d="M57.7 920.24L83 894.94L42.34 854.28L2 894.63L27.3 919.93L42.34 904.88L57.7 920.24Z" stroke="#1e3a8a" stroke-width="1.72" stroke-miterlimit="10"/>
<path d="M243.4 866.87L218.1 892.17L258.76 932.83L299.1 892.49L273.81 867.19L258.76 882.23L243.4 866.87Z" stroke="#1e3a8a" stroke-width="1.72" stroke-miterlimit="10"/>
</svg>
