<svg width="952" height="976" viewBox="0 0 952 976" fill="none" xmlns="http://www.w3.org/2000/svg">
<path d="M720.84 420.8L746.14 446.1L786.8 405.44L746.45 365.1L721.16 390.4L736.2 405.44L720.84 420.8Z" fill="#1e3a8a" stroke="#1e3a8a" stroke-width="1.72" stroke-miterlimit="10"/>
<path d="M775.34 366.3L800.63 391.6L841.29 350.94L800.95 310.6L775.65 335.9L790.69 350.94L775.34 366.3Z" fill="#1e3a8a" stroke="#1e3a8a" stroke-width="1.72" stroke-miterlimit="10"/>
<path d="M774.22 474.17L799.52 499.47L840.17 458.82L799.83 418.47L774.53 443.77L789.58 458.82L774.22 474.17Z" fill="#1e3a8a" stroke="#1e3a8a" stroke-width="1.72" stroke-miterlimit="10"/>
<path d="M828.71 419.68L854.01 444.98L894.67 404.32L854.33 363.98L829.03 389.28L844.07 404.32L828.71 419.68Z" fill="#1e3a8a" stroke="#1e3a8a" stroke-width="1.72" stroke-miterlimit="10"/>
<path d="M894.16 324.95L868.86 350.25L909.51 390.91L949.86 350.57L924.56 325.27L909.51 340.31L894.16 324.95Z" fill="#1e3a8a" stroke="#1e3a8a" stroke-width="1.72" stroke-miterlimit="10"/>
<path d="M922.75 592.62L948.05 567.32L907.39 526.66L867.05 567L892.35 592.3L907.39 577.26L922.75 592.62Z" fill="#1e3a8a" stroke="#1e3a8a" stroke-width="1.72" stroke-miterlimit="10"/>
<path d="M868.25 538.12L893.55 512.82L852.89 472.17L812.55 512.51L837.85 537.81L852.89 522.77L868.25 538.12Z" fill="#1e3a8a" stroke="#1e3a8a" stroke-width="1.72" stroke-miterlimit="10"/>
<path d="M921.63 484.75L946.93 459.45L906.27 418.79L865.93 459.13L891.23 484.43L906.27 469.39L921.63 484.75Z" fill="#1e3a8a" stroke="#1e3a8a" stroke-width="1.72" stroke-miterlimit="10"/>
<path d="M289.94 423.1L315.24 448.4L355.9 407.74L315.56 367.4L290.26 392.7L305.3 407.74L289.94 423.1Z" fill="#1e3a8a" stroke="#1e3a8a" stroke-width="1.72" stroke-miterlimit="10"/>
<path d="M344.44 368.6L369.74 393.9L410.4 353.24L370.05 312.9L344.76 338.2L359.8 353.24L344.44 368.6Z" fill="#1e3a8a" stroke="#1e3a8a" stroke-width="1.72" stroke-miterlimit="10"/>
<path d="M343.32 476.47L368.62 501.77L409.28 461.12L368.94 420.77L343.64 446.07L358.68 461.12L343.32 476.47Z" fill="#1e3a8a" stroke="#1e3a8a" stroke-width="1.72" stroke-miterlimit="10"/>
<path d="M397.82 421.98L423.12 447.28L463.77 406.62L423.43 366.28L398.13 391.58L413.18 406.62L397.82 421.98Z" fill="#1e3a8a" stroke="#1e3a8a" stroke-width="1.72" stroke-miterlimit="10"/>
<path d="M463.26 327.25L437.96 352.55L478.62 393.21L518.96 352.87L493.66 327.57L478.62 342.61L463.26 327.25Z" fill="#1e3a8a" stroke="#1e3a8a" stroke-width="1.72" stroke-miterlimit="10"/>
<path d="M664.05 391.2L638.75 365.9L598.09 406.56L638.43 446.9L663.73 421.6L648.69 406.56L664.05 391.2Z" fill="#1e3a8a" stroke="#1e3a8a" stroke-width="1.72" stroke-miterlimit="10"/>
<path d="M609.55 445.7L584.25 420.4L543.6 461.06L583.94 501.4L609.24 476.1L594.2 461.06L609.55 445.7Z" fill="#1e3a8a" stroke="#1e3a8a" stroke-width="1.72" stroke-miterlimit="10"/>
<path d="M610.67 337.82L585.37 312.53L544.71 353.18L585.06 393.53L610.36 368.23L595.31 353.18L610.67 337.82Z" fill="#1e3a8a" stroke="#1e3a8a" stroke-width="1.72" stroke-miterlimit="10"/>
<path d="M556.18 392.32L530.88 367.02L490.22 407.68L530.56 448.02L555.86 422.72L540.82 407.68L556.18 392.32Z" fill="#1e3a8a" stroke="#1e3a8a" stroke-width="1.72" stroke-miterlimit="10"/>
<path d="M491.85 594.92L517.15 569.62L476.49 528.96L436.15 569.3L461.45 594.6L476.49 579.56L491.85 594.92Z" fill="#1e3a8a" stroke="#1e3a8a" stroke-width="1.72" stroke-miterlimit="10"/>
<path d="M437.36 540.42L462.66 515.12L422 474.47L381.66 514.81L406.96 540.11L422 525.06L437.36 540.42Z" fill="#1e3a8a" stroke="#1e3a8a" stroke-width="1.72" stroke-miterlimit="10"/>
<path d="M545.23 541.54L570.53 516.24L529.87 475.58L489.53 515.93L514.83 541.23L529.87 526.18L545.23 541.54Z" fill="#1e3a8a" stroke="#1e3a8a" stroke-width="1.72" stroke-miterlimit="10"/>
<path d="M490.73 487.05L516.03 461.75L475.38 421.09L435.03 461.43L460.33 486.73L475.38 471.69L490.73 487.05Z" fill="#1e3a8a" stroke="#1e3a8a" stroke-width="1.72" stroke-miterlimit="10"/>
<path d="M504.24 637.39L529.54 662.69L570.2 622.04L529.86 581.69L504.56 606.99L519.6 622.04L504.24 637.39Z" fill="#1e3a8a" stroke="#1e3a8a" stroke-width="1.72" stroke-miterlimit="10"/>
<path d="M558.74 582.9L584.04 608.2L624.7 567.54L584.35 527.2L559.05 552.5L574.1 567.54L558.74 582.9Z" fill="#1e3a8a" stroke="#1e3a8a" stroke-width="1.72" stroke-miterlimit="10"/>
<path d="M557.62 690.77L582.92 716.07L623.58 675.41L583.23 635.07L557.94 660.37L572.98 675.41L557.62 690.77Z" fill="#1e3a8a" stroke="#1e3a8a" stroke-width="1.72" stroke-miterlimit="10"/>
<path d="M612.12 636.28L637.41 661.58L678.07 620.92L637.73 580.58L612.43 605.87L627.47 620.92L612.12 636.28Z" fill="#1e3a8a" stroke="#1e3a8a" stroke-width="1.72" stroke-miterlimit="10"/>
<path d="M676.44 433.68L651.14 458.98L691.8 499.63L732.14 459.29L706.84 433.99L691.8 449.04L676.44 433.68Z" fill="#1e3a8a" stroke="#1e3a8a" stroke-width="1.72" stroke-miterlimit="10"/>
<path d="M730.94 488.17L705.64 513.47L746.29 554.13L786.64 513.79L761.34 488.49L746.29 503.53L730.94 488.17Z" fill="#1e3a8a" stroke="#1e3a8a" stroke-width="1.72" stroke-miterlimit="10"/>
<path d="M623.06 487.05L597.76 512.35L638.42 553.01L678.76 512.67L653.46 487.37L638.42 502.41L623.06 487.05Z" fill="#1e3a8a" stroke="#1e3a8a" stroke-width="1.72" stroke-miterlimit="10"/>
<path d="M677.56 541.55L652.26 566.85L692.92 607.51L733.26 567.17L707.96 541.87L692.92 556.91L677.56 541.55Z" fill="#1e3a8a" stroke="#1e3a8a" stroke-width="1.72" stroke-miterlimit="10"/>
<path d="M878.35 605.5L853.05 580.2L812.39 620.86L852.73 661.2L878.03 635.9L862.99 620.86L878.35 605.5Z" fill="#1e3a8a" stroke="#1e3a8a" stroke-width="1.72" stroke-miterlimit="10"/>
<path d="M823.85 660L798.55 634.7L757.89 675.35L798.24 715.7L823.54 690.4L808.49 675.35L823.85 660Z" fill="#1e3a8a" stroke="#1e3a8a" stroke-width="1.72" stroke-miterlimit="10"/>
<path d="M824.97 552.12L799.67 526.82L759.01 567.48L799.36 607.82L824.65 582.52L809.61 567.48L824.97 552.12Z" fill="#1e3a8a" stroke="#1e3a8a" stroke-width="1.72" stroke-miterlimit="10"/>
<path d="M770.47 606.62L745.17 581.32L704.52 621.98L744.86 662.32L770.16 637.02L755.12 621.98L770.47 606.62Z" fill="#1e3a8a" stroke="#1e3a8a" stroke-width="1.72" stroke-miterlimit="10"/>
<path d="M706.15 809.22L731.45 783.92L690.79 743.26L650.45 783.6L675.75 808.9L690.79 793.86L706.15 809.22Z" fill="#1e3a8a" stroke="#1e3a8a" stroke-width="1.72" stroke-miterlimit="10"/>
<path d="M651.65 754.72L676.95 729.42L636.3 688.76L595.95 729.11L621.25 754.41L636.3 739.36L651.65 754.72Z" fill="#1e3a8a" stroke="#1e3a8a" stroke-width="1.72" stroke-miterlimit="10"/>
<path d="M759.53 755.84L784.83 730.54L744.17 689.88L703.83 730.22L729.13 755.52L744.17 740.48L759.53 755.84Z" fill="#1e3a8a" stroke="#1e3a8a" stroke-width="1.72" stroke-miterlimit="10"/>
<path d="M705.03 701.34L730.33 676.04L689.67 635.39L649.33 675.73L674.63 701.03L689.67 685.99L705.03 701.34Z" fill="#1e3a8a" stroke="#1e3a8a" stroke-width="1.72" stroke-miterlimit="10"/>
<path d="M504.24 205.71L529.54 231.01L570.2 190.36L529.86 150.01L504.56 175.31L519.6 190.36L504.24 205.71Z" fill="#1e3a8a" stroke="#1e3a8a" stroke-width="1.72" stroke-miterlimit="10"/>
<path d="M558.74 151.22L584.04 176.52L624.7 135.86L584.35 95.52L559.05 120.82L574.1 135.86L558.74 151.22Z" fill="#1e3a8a" stroke="#1e3a8a" stroke-width="1.72" stroke-miterlimit="10"/>
<path d="M557.62 259.09L582.92 284.39L623.58 243.73L583.23 203.39L557.94 228.69L572.98 243.73L557.62 259.09Z" fill="#1e3a8a" stroke="#1e3a8a" stroke-width="1.72" stroke-miterlimit="10"/>
<path d="M612.12 204.6L637.41 229.9L678.07 189.24L637.73 148.9L612.43 174.19L627.47 189.24L612.12 204.6Z" fill="#1e3a8a" stroke="#1e3a8a" stroke-width="1.72" stroke-miterlimit="10"/>
<path d="M676.44 2L651.14 27.3L691.8 67.95L732.14 27.61L706.84 2.31L691.8 17.36L676.44 2Z" fill="#1e3a8a" stroke="#1e3a8a" stroke-width="1.72" stroke-miterlimit="10"/>
<path d="M730.94 56.49L705.64 81.79L746.29 122.45L786.64 82.11L761.34 56.81L746.29 71.85L730.94 56.49Z" fill="#1e3a8a" stroke="#1e3a8a" stroke-width="1.72" stroke-miterlimit="10"/>
<path d="M623.06 55.37L597.76 80.67L638.42 121.33L678.76 80.99L653.46 55.69L638.42 70.73L623.06 55.37Z" fill="#1e3a8a" stroke="#1e3a8a" stroke-width="1.72" stroke-miterlimit="10"/>
<path d="M677.56 109.87L652.26 135.17L692.92 175.83L733.26 135.49L707.96 110.19L692.92 125.23L677.56 109.87Z" fill="#1e3a8a" stroke="#1e3a8a" stroke-width="1.72" stroke-miterlimit="10"/>
<path d="M878.35 173.82L853.05 148.52L812.39 189.18L852.73 229.52L878.03 204.22L862.99 189.18L878.35 173.82Z" fill="#1e3a8a" stroke="#1e3a8a" stroke-width="1.72" stroke-miterlimit="10"/>
<path d="M823.85 228.32L798.55 203.02L757.89 243.67L798.24 284.02L823.54 258.72L808.49 243.67L823.85 228.32Z" fill="#1e3a8a" stroke="#1e3a8a" stroke-width="1.72" stroke-miterlimit="10"/>
<path d="M824.97 120.44L799.67 95.14L759.01 135.8L799.36 176.14L824.65 150.84L809.61 135.8L824.97 120.44Z" fill="#1e3a8a" stroke="#1e3a8a" stroke-width="1.72" stroke-miterlimit="10"/>
<path d="M770.47 174.94L745.17 149.64L704.52 190.3L744.86 230.64L770.16 205.34L755.12 190.3L770.47 174.94Z" fill="#1e3a8a" stroke="#1e3a8a" stroke-width="1.72" stroke-miterlimit="10"/>
<path d="M706.15 377.54L731.45 352.24L690.79 311.58L650.45 351.92L675.75 377.22L690.79 362.18L706.15 377.54Z" fill="#1e3a8a" stroke="#1e3a8a" stroke-width="1.72" stroke-miterlimit="10"/>
<path d="M651.65 323.04L676.95 297.74L636.3 257.08L595.95 297.43L621.25 322.73L636.3 307.68L651.65 323.04Z" fill="#1e3a8a" stroke="#1e3a8a" stroke-width="1.72" stroke-miterlimit="10"/>
<path d="M759.53 324.16L784.83 298.86L744.17 258.2L703.83 298.54L729.13 323.84L744.17 308.8L759.53 324.16Z" fill="#1e3a8a" stroke="#1e3a8a" stroke-width="1.72" stroke-miterlimit="10"/>
<path d="M705.03 269.66L730.33 244.36L689.67 203.71L649.33 244.05L674.63 269.35L689.67 254.31L705.03 269.66Z" fill="#1e3a8a" stroke="#1e3a8a" stroke-width="1.72" stroke-miterlimit="10"/>
<path d="M718.54 851.69L743.84 876.99L784.5 836.33L744.16 795.99L718.86 821.29L733.9 836.33L718.54 851.69Z" fill="#1e3a8a" stroke="#1e3a8a" stroke-width="1.72" stroke-miterlimit="10"/>
<path d="M773.04 797.2L798.34 822.5L838.99 781.84L798.65 741.5L773.35 766.8L788.39 781.84L773.04 797.2Z" fill="#1e3a8a" stroke="#1e3a8a" stroke-width="1.72" stroke-miterlimit="10"/>
<path d="M771.92 905.07L797.22 930.37L837.87 889.71L797.53 849.37L772.23 874.67L787.28 889.71L771.92 905.07Z" fill="#1e3a8a" stroke="#1e3a8a" stroke-width="1.72" stroke-miterlimit="10"/>
<path d="M826.41 850.57L851.71 875.87L892.37 835.22L852.03 794.87L826.73 820.17L841.77 835.22L826.41 850.57Z" fill="#1e3a8a" stroke="#1e3a8a" stroke-width="1.72" stroke-miterlimit="10"/>
<path d="M890.74 647.98L865.44 673.27L906.1 713.93L946.44 673.59L921.14 648.29L906.1 663.33L890.74 647.98Z" fill="#1e3a8a" stroke="#1e3a8a" stroke-width="1.72" stroke-miterlimit="10"/>
<path d="M837.36 701.35L812.06 726.65L852.72 767.31L893.06 726.97L867.76 701.67L852.72 716.71L837.36 701.35Z" fill="#1e3a8a" stroke="#1e3a8a" stroke-width="1.72" stroke-miterlimit="10"/>
<path d="M891.86 755.85L866.56 781.15L907.21 821.81L947.56 781.46L922.26 756.16L907.21 771.21L891.86 755.85Z" fill="#1e3a8a" stroke="#1e3a8a" stroke-width="1.72" stroke-miterlimit="10"/>
<path d="M865.95 969.02L891.25 943.72L850.59 903.06L810.25 943.4L835.55 968.7L850.59 953.66L865.95 969.02Z" fill="#1e3a8a" stroke="#1e3a8a" stroke-width="1.72" stroke-miterlimit="10"/>
<path d="M919.33 915.64L944.63 890.34L903.97 849.68L863.63 890.03L888.93 915.33L903.97 900.28L919.33 915.64Z" fill="#1e3a8a" stroke="#1e3a8a" stroke-width="1.72" stroke-miterlimit="10"/>
<path d="M32.3601 329.55L7.07007 354.85L47.7201 395.51L88.0601 355.17L62.7701 329.87L47.7201 344.91L32.3601 329.55Z" fill="#1e3a8a" stroke="#1e3a8a" stroke-width="1.72" stroke-miterlimit="10"/>
<path d="M233.15 393.5L207.85 368.2L167.2 408.86L207.54 449.2L232.84 423.9L217.8 408.86L233.15 393.5Z" fill="#1e3a8a" stroke="#1e3a8a" stroke-width="1.72" stroke-miterlimit="10"/>
<path d="M178.66 448L153.36 422.7L112.7 463.36L153.04 503.7L178.34 478.4L163.3 463.36L178.66 448Z" fill="#1e3a8a" stroke="#1e3a8a" stroke-width="1.72" stroke-miterlimit="10"/>
<path d="M179.78 340.12L154.48 314.82L113.82 355.48L154.16 395.82L179.46 370.53L164.42 355.48L179.78 340.12Z" fill="#1e3a8a" stroke="#1e3a8a" stroke-width="1.72" stroke-miterlimit="10"/>
<path d="M125.28 394.62L99.9801 369.32L59.3201 409.98L99.6701 450.32L124.97 425.02L109.92 409.98L125.28 394.62Z" fill="#1e3a8a" stroke="#1e3a8a" stroke-width="1.72" stroke-miterlimit="10"/>
<path d="M60.96 597.22L86.26 571.92L45.6 531.26L5.26001 571.6L30.56 596.9L45.6 581.86L60.96 597.22Z" fill="#1e3a8a" stroke="#1e3a8a" stroke-width="1.72" stroke-miterlimit="10"/>
<path d="M114.33 543.84L139.63 518.54L98.98 477.88L58.63 518.23L83.93 543.53L98.98 528.48L114.33 543.84Z" fill="#1e3a8a" stroke="#1e3a8a" stroke-width="1.72" stroke-miterlimit="10"/>
<path d="M59.84 489.35L85.14 464.05L44.48 423.39L4.14001 463.73L29.44 489.03L44.48 473.99L59.84 489.35Z" fill="#1e3a8a" stroke="#1e3a8a" stroke-width="1.72" stroke-miterlimit="10"/>
<path d="M246.22 113.73L220.93 139.03L261.58 179.69L301.92 139.35L276.63 114.05L261.58 129.09L246.22 113.73Z" fill="#1e3a8a" stroke="#1e3a8a" stroke-width="1.72" stroke-miterlimit="10"/>
<path d="M447.01 177.68L421.71 152.38L381.06 193.04L421.4 233.38L446.7 208.08L431.66 193.04L447.01 177.68Z" fill="#1e3a8a" stroke="#1e3a8a" stroke-width="1.72" stroke-miterlimit="10"/>
<path d="M392.52 232.18L367.22 206.88L326.56 247.54L366.9 287.88L392.2 262.58L377.16 247.54L392.52 232.18Z" fill="#1e3a8a" stroke="#1e3a8a" stroke-width="1.72" stroke-miterlimit="10"/>
<path d="M393.64 124.3L368.34 99L327.68 139.66L368.02 180L393.32 154.71L378.28 139.66L393.64 124.3Z" fill="#1e3a8a" stroke="#1e3a8a" stroke-width="1.72" stroke-miterlimit="10"/>
<path d="M339.14 178.8L313.84 153.5L273.18 194.16L313.53 234.5L338.83 209.2L323.78 194.16L339.14 178.8Z" fill="#1e3a8a" stroke="#1e3a8a" stroke-width="1.72" stroke-miterlimit="10"/>
<path d="M274.82 381.4L300.12 356.1L259.46 315.44L219.12 355.78L244.42 381.08L259.46 366.04L274.82 381.4Z" fill="#1e3a8a" stroke="#1e3a8a" stroke-width="1.72" stroke-miterlimit="10"/>
<path d="M328.19 328.02L353.49 302.72L312.84 262.06L272.49 302.41L297.79 327.71L312.84 312.66L328.19 328.02Z" fill="#1e3a8a" stroke="#1e3a8a" stroke-width="1.72" stroke-miterlimit="10"/>
<path d="M273.7 273.53L299 248.23L258.34 207.57L218 247.91L243.3 273.21L258.34 258.17L273.7 273.53Z" fill="#1e3a8a" stroke="#1e3a8a" stroke-width="1.72" stroke-miterlimit="10"/>
<path d="M73.3499 639.69L98.6499 664.99L139.3 624.34L98.9599 583.99L73.6599 609.29L88.7099 624.34L73.3499 639.69Z" fill="#1e3a8a" stroke="#1e3a8a" stroke-width="1.72" stroke-miterlimit="10"/>
<path d="M127.84 585.2L153.14 610.5L193.8 569.84L153.46 529.5L128.16 554.8L143.2 569.84L127.84 585.2Z" fill="#1e3a8a" stroke="#1e3a8a" stroke-width="1.72" stroke-miterlimit="10"/>
<path d="M126.72 693.07L152.02 718.37L192.68 677.71L152.34 637.37L127.04 662.67L142.08 677.71L126.72 693.07Z" fill="#1e3a8a" stroke="#1e3a8a" stroke-width="1.72" stroke-miterlimit="10"/>
<path d="M181.22 638.58L206.52 663.87L247.18 623.22L206.83 582.87L181.54 608.17L196.58 623.22L181.22 638.58Z" fill="#1e3a8a" stroke="#1e3a8a" stroke-width="1.72" stroke-miterlimit="10"/>
<path d="M245.54 435.98L220.24 461.28L260.9 501.93L301.24 461.59L275.95 436.29L260.9 451.34L245.54 435.98Z" fill="#1e3a8a" stroke="#1e3a8a" stroke-width="1.72" stroke-miterlimit="10"/>
<path d="M300.04 490.47L274.74 515.77L315.4 556.43L355.74 516.09L330.44 490.79L315.4 505.83L300.04 490.47Z" fill="#1e3a8a" stroke="#1e3a8a" stroke-width="1.72" stroke-miterlimit="10"/>
<path d="M192.17 489.35L166.87 514.65L207.53 555.31L247.87 514.97L222.57 489.67L207.53 504.71L192.17 489.35Z" fill="#1e3a8a" stroke="#1e3a8a" stroke-width="1.72" stroke-miterlimit="10"/>
<path d="M246.66 543.85L221.36 569.15L262.02 609.81L302.36 569.47L277.06 544.17L262.02 559.21L246.66 543.85Z" fill="#1e3a8a" stroke="#1e3a8a" stroke-width="1.72" stroke-miterlimit="10"/>
<path d="M447.45 607.8L422.15 582.5L381.49 623.16L421.84 663.5L447.14 638.2L432.09 623.16L447.45 607.8Z" fill="#1e3a8a" stroke="#1e3a8a" stroke-width="1.72" stroke-miterlimit="10"/>
<path d="M392.96 662.3L367.66 637L327 677.65L367.34 718L392.64 692.7L377.6 677.65L392.96 662.3Z" fill="#1e3a8a" stroke="#1e3a8a" stroke-width="1.72" stroke-miterlimit="10"/>
<path d="M394.07 554.42L368.78 529.12L328.12 569.78L368.46 610.12L393.76 584.82L378.72 569.78L394.07 554.42Z" fill="#1e3a8a" stroke="#1e3a8a" stroke-width="1.72" stroke-miterlimit="10"/>
<path d="M339.58 608.92L314.28 583.62L273.62 624.28L313.96 664.62L339.26 639.32L324.22 624.28L339.58 608.92Z" fill="#1e3a8a" stroke="#1e3a8a" stroke-width="1.72" stroke-miterlimit="10"/>
<path d="M275.25 811.52L300.55 786.22L259.9 745.56L219.55 785.9L244.85 811.2L259.9 796.16L275.25 811.52Z" fill="#1e3a8a" stroke="#1e3a8a" stroke-width="1.72" stroke-miterlimit="10"/>
<path d="M220.76 757.02L246.06 731.72L205.4 691.06L165.06 731.41L190.36 756.7L205.4 741.66L220.76 757.02Z" fill="#1e3a8a" stroke="#1e3a8a" stroke-width="1.72" stroke-miterlimit="10"/>
<path d="M328.63 758.14L353.93 732.84L313.27 692.18L272.93 732.52L298.23 757.82L313.27 742.78L328.63 758.14Z" fill="#1e3a8a" stroke="#1e3a8a" stroke-width="1.72" stroke-miterlimit="10"/>
<path d="M274.14 703.64L299.44 678.34L258.78 637.69L218.44 678.03L243.73 703.33L258.78 688.28L274.14 703.64Z" fill="#1e3a8a" stroke="#1e3a8a" stroke-width="1.72" stroke-miterlimit="10"/>
<path d="M287.64 853.99L312.94 879.29L353.6 838.63L313.26 798.29L287.96 823.59L303 838.63L287.64 853.99Z" fill="#1e3a8a" stroke="#1e3a8a" stroke-width="1.72" stroke-miterlimit="10"/>
<path d="M342.14 799.5L367.44 824.8L408.1 784.14L367.76 743.8L342.46 769.1L357.5 784.14L342.14 799.5Z" fill="#1e3a8a" stroke="#1e3a8a" stroke-width="1.72" stroke-miterlimit="10"/>
<path d="M341.02 907.37L366.32 932.67L406.98 892.01L366.64 851.67L341.34 876.97L356.38 892.01L341.02 907.37Z" fill="#1e3a8a" stroke="#1e3a8a" stroke-width="1.72" stroke-miterlimit="10"/>
<path d="M395.52 852.87L420.82 878.17L461.47 837.52L421.13 797.17L395.83 822.47L410.88 837.52L395.52 852.87Z" fill="#1e3a8a" stroke="#1e3a8a" stroke-width="1.72" stroke-miterlimit="10"/>
<path d="M459.84 650.28L434.54 675.57L475.2 716.23L515.54 675.89L490.24 650.59L475.2 665.63L459.84 650.28Z" fill="#1e3a8a" stroke="#1e3a8a" stroke-width="1.72" stroke-miterlimit="10"/>
<path d="M514.34 704.77L489.04 730.07L529.7 770.73L570.04 730.39L544.74 705.09L529.7 720.13L514.34 704.77Z" fill="#1e3a8a" stroke="#1e3a8a" stroke-width="1.72" stroke-miterlimit="10"/>
<path d="M406.46 703.65L381.17 728.95L421.82 769.61L462.17 729.27L436.87 703.97L421.82 719.01L406.46 703.65Z" fill="#1e3a8a" stroke="#1e3a8a" stroke-width="1.72" stroke-miterlimit="10"/>
<path d="M460.96 758.15L435.66 783.45L476.32 824.11L516.66 783.76L491.36 758.46L476.32 773.51L460.96 758.15Z" fill="#1e3a8a" stroke="#1e3a8a" stroke-width="1.72" stroke-miterlimit="10"/>
<path d="M661.75 822.1L636.45 796.8L595.79 837.46L636.13 877.8L661.43 852.5L646.39 837.46L661.75 822.1Z" fill="#1e3a8a" stroke="#1e3a8a" stroke-width="1.72" stroke-miterlimit="10"/>
<path d="M607.25 876.59L581.95 851.29L541.3 891.95L581.64 932.29L606.94 906.99L591.9 891.95L607.25 876.59Z" fill="#1e3a8a" stroke="#1e3a8a" stroke-width="1.72" stroke-miterlimit="10"/>
<path d="M608.37 768.72L583.07 743.42L542.42 784.08L582.76 824.42L608.06 799.12L593.01 784.08L608.37 768.72Z" fill="#1e3a8a" stroke="#1e3a8a" stroke-width="1.72" stroke-miterlimit="10"/>
<path d="M553.88 823.22L528.58 797.92L487.92 838.57L528.26 878.92L553.56 853.62L538.52 838.57L553.88 823.22Z" fill="#1e3a8a" stroke="#1e3a8a" stroke-width="1.72" stroke-miterlimit="10"/>
<path d="M435.06 971.32L460.36 946.02L419.7 905.36L379.36 945.7L404.66 971L419.7 955.96L435.06 971.32Z" fill="#1e3a8a" stroke="#1e3a8a" stroke-width="1.72" stroke-miterlimit="10"/>
<path d="M542.93 972.44L568.23 947.14L527.57 906.48L487.23 946.82L512.53 972.12L527.57 957.08L542.93 972.44Z" fill="#1e3a8a" stroke="#1e3a8a" stroke-width="1.72" stroke-miterlimit="10"/>
<path d="M488.43 917.94L513.73 892.64L473.08 851.98L432.73 892.33L458.03 917.63L473.08 902.58L488.43 917.94Z" fill="#1e3a8a" stroke="#1e3a8a" stroke-width="1.72" stroke-miterlimit="10"/>
<path d="M674.14 864.57L648.84 889.87L689.5 930.53L729.84 890.19L704.54 864.89L689.5 879.93L674.14 864.57Z" fill="#1e3a8a" stroke="#1e3a8a" stroke-width="1.72" stroke-miterlimit="10"/>
<path d="M28.95 652.57L3.65002 677.87L44.3 718.53L84.65 678.19L59.35 652.89L44.3 667.93L28.95 652.57Z" fill="#1e3a8a" stroke="#1e3a8a" stroke-width="1.72" stroke-miterlimit="10"/>
<path d="M83.44 707.07L58.14 732.37L98.8 773.03L139.14 732.69L113.84 707.39L98.8 722.43L83.44 707.07Z" fill="#1e3a8a" stroke="#1e3a8a" stroke-width="1.72" stroke-miterlimit="10"/>
<path d="M30.06 760.45L4.77002 785.75L45.42 826.4L85.77 786.06L60.47 760.76L45.42 775.81L30.06 760.45Z" fill="#1e3a8a" stroke="#1e3a8a" stroke-width="1.72" stroke-miterlimit="10"/>
<path d="M230.85 824.4L205.55 799.1L164.9 839.76L205.24 880.1L230.54 854.8L215.5 839.76L230.85 824.4Z" fill="#1e3a8a" stroke="#1e3a8a" stroke-width="1.72" stroke-miterlimit="10"/>
<path d="M176.36 878.89L151.06 853.59L110.4 894.25L150.74 934.59L176.04 909.29L161 894.25L176.36 878.89Z" fill="#1e3a8a" stroke="#1e3a8a" stroke-width="1.72" stroke-miterlimit="10"/>
<path d="M177.48 771.02L152.18 745.72L111.52 786.38L151.86 826.72L177.16 801.42L162.12 786.38L177.48 771.02Z" fill="#1e3a8a" stroke="#1e3a8a" stroke-width="1.72" stroke-miterlimit="10"/>
<path d="M122.98 825.52L97.68 800.22L57.02 840.87L97.37 881.22L122.67 855.92L107.62 840.87L122.98 825.52Z" fill="#1e3a8a" stroke="#1e3a8a" stroke-width="1.72" stroke-miterlimit="10"/>
<path d="M112.03 974.74L137.33 949.44L96.68 908.78L56.33 949.12L81.63 974.42L96.68 959.38L112.03 974.74Z" fill="#1e3a8a" stroke="#1e3a8a" stroke-width="1.72" stroke-miterlimit="10"/>
<path d="M57.54 920.24L82.84 894.94L42.18 854.28L1.83997 894.63L27.14 919.93L42.18 904.88L57.54 920.24Z" fill="#1e3a8a" stroke="#1e3a8a" stroke-width="1.72" stroke-miterlimit="10"/>
<path d="M243.24 866.87L217.94 892.17L258.6 932.83L298.94 892.49L273.65 867.19L258.6 882.23L243.24 866.87Z" fill="#1e3a8a" stroke="#1e3a8a" stroke-width="1.72" stroke-miterlimit="10"/>
</svg>
